<svg width="18" height="11" viewBox="0 0 18 11" fill="none"
    xmlns="http://www.w3.org/2000/svg">
    <path fill-rule="evenodd" clip-rule="evenodd" d="M4.5 4.4c1.243 0 2.25-.985 2.25-2.2C6.75.985 5.743 0 4.5 0S2.25.985 2.25 2.2c0 1.215 1.007 2.2 2.25 2.2Zm0-1c.678 0 1.227-.537 1.227-1.2 0-.663-.55-1.2-1.227-1.2-.678 0-1.227.537-1.227 1.2 0 .663.55 1.2 1.227 1.2Z" fill="#000"></path>
    <path d="M0 2.7h2.25v-1H0v1ZM15.75 9.3H18v-1h-2.25v1ZM17.625 2.7h-9v-1h9v1Z" fill="currentColor"></path>
    <path fill-rule="evenodd" clip-rule="evenodd" d="M0 9.3h9v-.47C9.016 10.03 10.017 11 11.25 11c1.242 0 2.25-.985 2.25-2.2 0-1.215-1.008-2.2-2.25-2.2-1.233 0-2.234.969-2.25 2.17V8.3H0v1Zm12.477-.5c0 .663-.55 1.2-1.228 1.2-.677 0-1.227-.537-1.227-1.2 0-.663.55-1.2 1.227-1.2.678 0 1.228.537 1.228 1.2Z" fill="#000"></path>
</svg>