<svg width="16" height="16" viewBox="0 0 16 16" fill="none"
    xmlns="http://www.w3.org/2000/svg">
    <path d="M8.74022 0.800935C9.2656 0.798919 9.79098 0.804199 10.3162 0.816774L10.4559 0.821814C10.6172 0.827574 10.7763 0.834774 10.9685 0.843413C11.7345 0.879412 12.2572 1.00037 12.7159 1.1782C13.191 1.36108 13.5913 1.60875 13.9916 2.00905C14.3576 2.36876 14.6409 2.80387 14.8217 3.28413C14.9996 3.74275 15.1205 4.26618 15.1565 5.03223C15.1652 5.22374 15.1724 5.38358 15.1781 5.54485L15.1824 5.68453C15.1952 6.20953 15.2008 6.73468 15.199 7.25984L15.1997 7.79694V8.7401C15.2015 9.2655 15.196 9.79089 15.1832 10.3161L15.1788 10.4558C15.1731 10.6171 15.1659 10.7762 15.1572 10.9684C15.1212 11.7345 14.9989 12.2572 14.8217 12.7158C14.6415 13.1966 14.3582 13.632 13.9916 13.9916C13.6316 14.3576 13.1963 14.6408 12.7159 14.8217C12.2572 14.9996 11.7345 15.1205 10.9685 15.1565C10.7763 15.1652 10.6172 15.1724 10.4559 15.1781L10.3162 15.1824C9.79098 15.1952 9.2656 15.2008 8.74022 15.199L8.20312 15.1997H7.26069C6.73531 15.2015 6.20992 15.196 5.68469 15.1832L5.54502 15.1788C5.37411 15.1727 5.20323 15.1654 5.03241 15.1572C4.26637 15.1212 3.74367 14.9989 3.28434 14.8217C2.80389 14.6413 2.36871 14.3579 2.00928 13.9916C1.64285 13.6318 1.35932 13.1964 1.17844 12.7158C1.00061 12.2572 0.87966 11.7345 0.843662 10.9684C0.835644 10.7976 0.828444 10.6267 0.822063 10.4558L0.818463 10.3161C0.80519 9.7909 0.79919 9.2655 0.800464 8.7401V7.25984C0.798455 6.73468 0.803735 6.20953 0.816303 5.68453L0.821343 5.54485C0.827103 5.38358 0.834303 5.22374 0.842942 5.03223C0.87894 4.26546 0.999894 3.74347 1.17772 3.28413C1.3587 2.80363 1.6428 2.36864 2.01 2.00977C2.36919 1.64313 2.80409 1.35933 3.28434 1.1782C3.74367 1.00037 4.26565 0.879412 5.03241 0.843413L5.54502 0.821814L5.68469 0.818214C6.20968 0.804947 6.73482 0.798947 7.25997 0.800215L8.74022 0.800935ZM8.00009 4.40081C7.52312 4.39407 7.04957 4.48219 6.60695 4.66005C6.16433 4.83792 5.76148 5.10198 5.4218 5.4369C5.08212 5.77181 4.81239 6.1709 4.62828 6.61097C4.44418 7.05103 4.34937 7.5233 4.34937 8.00033C4.34937 8.47736 4.44418 8.94963 4.62828 9.38969C4.81239 9.82976 5.08212 10.2288 5.4218 10.5638C5.76148 10.8987 6.16433 11.1627 6.60695 11.3406C7.04957 11.5185 7.52312 11.6066 8.00009 11.5998C8.95482 11.5998 9.87045 11.2206 10.5455 10.5455C11.2206 9.87036 11.5999 8.95472 11.5999 7.99997C11.5999 7.04522 11.2206 6.12958 10.5455 5.45447C9.87045 4.77936 8.95482 4.40081 8.00009 4.40081ZM8.00009 5.84076C8.287 5.83548 8.57209 5.88742 8.8387 5.99355C9.10532 6.09968 9.34811 6.25787 9.55289 6.45889C9.75768 6.65991 9.92036 6.89973 10.0314 7.16432C10.1425 7.42892 10.1997 7.713 10.1998 7.99996C10.1998 8.28693 10.1427 8.57102 10.0317 8.83566C9.92073 9.10029 9.75813 9.34016 9.55341 9.54125C9.34869 9.74234 9.10595 9.90061 8.83937 10.0068C8.5728 10.1131 8.28773 10.1651 8.00081 10.1599C7.42798 10.1599 6.8786 9.93233 6.47354 9.52727C6.06848 9.1222 5.84093 8.57282 5.84093 7.99997C5.84093 7.42712 6.06848 6.87774 6.47354 6.47267C6.8786 6.06761 7.42798 5.84004 8.00081 5.84004L8.00009 5.84076ZM11.7799 3.32085C11.5476 3.33015 11.328 3.42895 11.1669 3.59658C11.0059 3.7642 10.9159 3.98764 10.9159 4.2201C10.9159 4.45255 11.0059 4.67599 11.1669 4.84362C11.328 5.01124 11.5476 5.11005 11.7799 5.11935C12.0186 5.11935 12.2475 5.02453 12.4163 4.85575C12.585 4.68698 12.6799 4.45807 12.6799 4.21938C12.6799 3.98069 12.585 3.75178 12.4163 3.583C12.2475 3.41423 12.0186 3.31941 11.7799 3.31941V3.32085Z" fill="#E57200" />
</svg>