<svg width="16" height="17" viewBox="0 0 16 17" fill="none"
    xmlns="http://www.w3.org/2000/svg">
    <path d="M15.8404 13.6838L11.766 9.60946C11.6785 9.52298 11.5647 9.46816 11.4426 9.45367C11.3204 9.43918 11.1969 9.46585 11.0917 9.52946C10.3567 9.97409 9.80838 10.6707 9.54879 11.4895C9.41736 11.9009 8.93735 12.0895 8.56591 11.8667L8.56019 11.8609L8.55448 11.8552C6.76976 10.7848 5.27621 9.29127 4.20581 7.50656C4.20581 7.50084 4.2001 7.49513 4.2001 7.49513C3.97152 7.12369 4.16009 6.64368 4.57153 6.51225C5.39207 6.25588 6.08968 5.70674 6.53158 4.96936C6.66301 4.75221 6.62872 4.47792 6.45157 4.29505L2.3772 0.220677C2.28974 0.134201 2.17592 0.0793755 2.05378 0.0648846C1.93165 0.0503936 1.80816 0.0770654 1.7029 0.140676C1.20467 0.439588 0.788665 0.85779 0.492381 1.35758C0.196097 1.85737 0.0288491 2.42304 0.00571441 3.0036V3.00931C-5.32196e-09 3.06646 0 3.1236 0 3.18074C0 3.26075 0.0057144 3.33503 0.0114288 3.40932C0.0794319 5.67213 0.726741 7.87967 1.89147 9.82089C2.96007 11.6038 4.45724 13.101 6.24014 14.1696L6.24586 14.1753C8.21161 15.3582 10.4517 16.0039 12.7431 16.0553C12.7889 16.0553 12.8346 16.061 12.8803 16.061H13.2003V16.0496C13.7558 16.0025 14.2924 15.8248 14.7661 15.5308C15.2398 15.2369 15.6373 14.835 15.9261 14.3581C16.0518 14.141 16.0175 13.861 15.8404 13.6838Z" fill="#E57200"/>
</svg>