<svg width="12" height="11" viewBox="0 0 12 11" fill="none"
    xmlns="http://www.w3.org/2000/svg">
    <circle cx="5.79407" cy="5.5" r="5.10714" stroke="#EBEBEB" stroke-width="0.785714" />
    <path d="M6.21822 9.13037C5.72281 9.13037 5.26651 9.03911 4.84933 8.85659C4.44083 8.66538 4.08014 8.40464 3.76725 8.07437C3.46306 7.7441 3.22404 7.36602 3.05022 6.94015C2.88508 6.51427 2.80251 6.06232 2.80251 5.5843C2.80251 4.94114 2.94592 4.35447 3.23273 3.8243C3.51955 3.29412 3.91935 2.87259 4.43214 2.5597C4.94493 2.24681 5.53594 2.09037 6.20518 2.09037C6.83965 2.09037 7.40024 2.23812 7.88696 2.53363C8.37367 2.82044 8.73436 3.21155 8.96903 3.70696L8.10859 3.98074C7.91738 3.63309 7.64794 3.36365 7.30029 3.17244C6.96133 2.97254 6.58325 2.87259 6.16607 2.87259C5.71412 2.87259 5.30128 2.98993 4.92755 3.22459C4.55382 3.45926 4.25397 3.78084 4.02799 4.18933C3.81071 4.59783 3.70207 5.06281 3.70207 5.5843C3.70207 6.09709 3.81506 6.56207 4.04103 6.97926C4.26701 7.39644 4.56686 7.73106 4.94059 7.98311C5.31431 8.22647 5.72715 8.34815 6.1791 8.34815C6.47461 8.34815 6.75708 8.296 7.02651 8.1917C7.30464 8.08741 7.54365 7.94835 7.74355 7.77452C7.95214 7.592 8.0912 7.39644 8.16073 7.18785L9.03422 7.44859C8.91254 7.77017 8.70829 8.06133 8.42148 8.32207C8.14335 8.57412 7.81308 8.77402 7.43066 8.92178C7.05693 9.06084 6.65278 9.13037 6.21822 9.13037Z" fill="#EBEBEB" />
</svg>
