<svg width="16" height="12" viewBox="0 0 16 12" fill="none"
    xmlns="http://www.w3.org/2000/svg">
    <path d="M6.4 8.19211L10.552 5.85445L6.4 3.51679V8.19211ZM15.648 2.09081C15.752 2.45705 15.824 2.94795 15.872 3.57133C15.928 4.19471 15.952 4.73237 15.952 5.1999L16 5.85445C16 7.56094 15.872 8.81549 15.648 9.61808C15.448 10.3194 14.984 10.7713 14.264 10.9661C13.888 11.0674 13.2 11.1376 12.144 11.1843C11.104 11.2389 10.152 11.2622 9.272 11.2622L8 11.309C4.648 11.309 2.56 11.1843 1.736 10.9661C1.016 10.7713 0.552 10.3194 0.352 9.61808C0.248 9.25185 0.176 8.76094 0.128 8.13756C0.0720001 7.51419 0.048 6.97653 0.048 6.50899L0 5.85445C0 4.14795 0.128 2.89341 0.352 2.09081C0.552 1.38951 1.016 0.937565 1.736 0.74276C2.112 0.641461 2.8 0.571331 3.856 0.524578C4.896 0.470032 5.848 0.446656 6.728 0.446656L8 0.399902C11.352 0.399902 13.44 0.524578 14.264 0.74276C14.984 0.937565 15.448 1.38951 15.648 2.09081Z" fill="#E57200"/>
</svg>